<svg xmlns="http://www.w3.org/2000/svg" viewBox="0 0 250 250"><path d="M179.7 134.5c1.2-.5 2.6-1.2 4.5-2.4 1.8-1.2 3.8-2.8 5.9-4.9 2.1-2.2 4.2-5 6.3-8.5l.3 2.2v4.6c-.5 3.9-1.7 7.5-3.4 10.5-1.7 3.2-3.7 5.8-5.9 8.2-2.1 2.4-4.5 4.3-6.8 5.9-2.4 1.6-4.6 2.9-6.6 3.9-2.1.9-3.7 1.7-5 2.1l-2.1.8-1.3.9-.3 1.7 1.4 1.2 3.4 1.2c1.4.3 2.9.4 4.6.3 1.7 0 3.4-.4 5.3-1.1-.9.9-2.2 2.1-3.8 3.5s-3.4 3-5.5 4.6c-2.1 1.7-4.6 3.3-7.4 5-2.6 1.7-5.7 3.3-8.9 4.7s-6.6 2.6-10.1 3.7c-3.4 1.1-6.7 1.8-9.6 2.5-2.9.5-5.4.9-7.4.9-2 .1-3-.1-3.3-.5v-.3h-.5l-.1.3c-.3.4-1.3.7-3.3.5-2 0-4.5-.4-7.4-.9-2.9-.7-6.2-1.4-9.6-2.5-3.5-1.1-6.8-2.2-10.1-3.7-3.2-1.4-6.2-3-8.8-4.7-2.8-1.7-5.3-3.3-7.5-5-2.1-1.6-3.9-3.2-5.5-4.6s-2.9-2.6-3.8-3.5c1.8.7 3.5 1.1 5.3 1.1 1.7.1 3.3 0 4.7-.3l3.4-1.2 1.4-1.2-.4-1.7-1.2-.9-2.1-.8c-1.3-.4-2.9-1.2-5-2.1-2-1.1-4.2-2.4-6.6-3.9-2.4-1.6-4.7-3.6-6.8-5.9-2.2-2.4-4.2-5-5.9-8-1.7-3.2-2.9-6.7-3.4-10.7V121l.3-2.2c2.1 3.5 4.2 6.3 6.3 8.5 2.1 2.1 4.1 3.7 5.9 4.9 1.7 1.2 3.2 1.8 4.3 2.4l2.1.7 2.1-1.1.1-2.5c-.8-1.4-1.6-2.9-2.5-4.3-.9-1.4-2-2.9-3-4.5-2.6-3.4-4.2-7.8-4.7-12.9-.7-5.1-.1-10.4 1.6-15.6 1.2-3.8 2.9-7 5.1-9.7 2.2-2.8 4.9-5.1 7.8-7.2 2.9-2 6-3.8 9.3-5.3s6.7-2.8 10-3.9h1.1c-3.7 2.2-6.4 4.6-8.4 7.2-2 2.6-3.3 5.1-3.9 7.8-.7 2.6-.8 5.3-.4 7.9.4 2.5.9 5 2 7.4 2.1 5.5 5.9 11.2 11.3 16.7-3.8 6.3-6 12.2-6.6 17.8-.5 5.7 0 10.7 1.7 15.4 1.6 4.6 3.8 8.8 6.8 12.6 3 3.7 6.2 7 9.3 9.6 3.3 2.8 6.2 4.9 8.9 6.6 2.8 1.6 4.6 2.6 5.7 3.2h1.4c1.1-.5 2.9-1.6 5.7-3.2 2.9-1.7 5.8-3.8 9.1-6.6 3.2-2.6 6.3-5.9 9.3-9.6 3-3.8 5.3-8 6.8-12.6 1.6-4.7 2.1-9.7 1.6-15.3-.5-5.5-2.8-11.4-6.6-17.9 5.4-5.5 9.2-11.2 11.3-16.7 1.1-2.4 1.6-4.9 2-7.4.4-2.6.3-5.3-.4-7.9-.7-2.6-2-5.1-3.9-7.8-2-2.6-4.7-5-8.4-7.2h1.2c3.3 1.2 6.6 2.5 9.9 3.9s6.4 3.3 9.3 5.3c2.9 2.1 5.5 4.5 7.8 7.2 2.2 2.8 3.9 5.9 5.1 9.7 1.7 5.1 2.2 10.4 1.6 15.5-.5 5.1-2.1 9.6-4.6 13-1.1 1.6-2.1 3-3 4.5-1.1 1.4-1.8 2.9-2.6 4.3l.3 2.5 2.1 1.1 1.7-.8zm-56-27.5c-2 0-3.8-.3-5.5-1.1-1.7-.8-3.3-1.8-4.6-3.2-1.3-1.3-2.4-2.9-3-4.7-.8-1.7-1.2-3.7-1.2-5.7s.4-3.9 1.2-5.7c.7-1.8 1.7-3.3 3-4.7 1.3-1.3 2.9-2.4 4.6-3.2 1.7-.7 3.5-1.1 5.5-1.1s3.8.4 5.5 1.1c1.7.8 3.3 1.8 4.6 3.2 1.3 1.4 2.4 2.9 3 4.7.8 1.7 1.2 3.7 1.2 5.7s-.4 3.9-1.2 5.7c-.7 1.8-1.7 3.4-3 4.7-1.3 1.3-2.9 2.4-4.6 3.2-1.7.9-3.5 1.1-5.5 1.1z"/></svg>