<svg xmlns="http://www.w3.org/2000/svg" viewBox="0 0 250 250"><path d="M128.85 50c.42 4.74.84 9.49 1.24 14.23.33 3.85.62 7.7.95 11.54.35 4.12.76 8.24 1.1 12.37.27 3.29.46 6.59.7 9.89.15 2.16.34 4.32.47 6.48a.8.8 0 0 0 .66.83 41.08 41.08 0 0 1 11.66 5.59 35.58 35.58 0 0 1 14.68 35.71 36.31 36.31 0 0 1-11.83 21.28 33 33 0 0 1-19.3 8.54 37.18 37.18 0 0 1-19-2.66 34.21 34.21 0 0 1-15.67-13.92 37 37 0 0 1-5.35-21.07c.48-11.71 5.43-21.15 14.91-28.11a35.87 35.87 0 0 1 11.49-5.33l.84-.24L121 50zm-12.62 59.39a4.75 4.75 0 0 0-.64.25 48.81 48.81 0 0 0-5.53 3.25c-7.79 6-12 13.69-11.07 23.78.12 1.29.46 2.55.69 3.82l19-2.18c0-.12 0-.29-.05-.46-.51-3-1.08-6.07-1.52-9.12s-.89-6.16-1.11-9.25c-.16-2.19 0-4.41.09-6.62.01-1.13.08-2.26.14-3.47zm33.9 31.09c1.08-6.94.31-13.55-3.24-19.69-3.09-5.36-7.71-9-13.43-11.46.17 1.79.35 3.45.47 5.11a37.12 37.12 0 0 1-.25 8.53c-.64 4-1.42 7.88-2.09 11.83-.2 1.19-.24 2.41-.34 3.51zm-.58 1.62l-15.32 2 .22 14c7.21-3.3 12.43-8.41 15.1-15.99zm-49.3.29c3.26 7.17 7.93 12.73 15.39 15.74V144zM115.76 180.56a28.5 28.5 0 0 0 9.17 1.3 30.52 30.52 0 0 0 9.2-1.32c0 .84-.07 1.6-.13 2.36-.25 3.05-.5 6.1-.78 9.15a4.25 4.25 0 0 1-.35 1.23c-.86 2.05-1.76 4.09-2.61 6.15a.81.81 0 0 1-.9.58h-8.94a.79.79 0 0 1-.85-.56c-.75-1.71-1.5-3.41-2.31-5.09a8.2 8.2 0 0 1-.85-3.06q-.33-5.23-.68-10.46a2.05 2.05 0 0 1 .03-.28z"/></svg>