<?xml version="1.0" encoding="utf-8"?>
<!-- Generator: Adobe Illustrator 21.0.2, SVG Export Plug-In . SVG Version: 6.00 Build 0)  -->
<svg version="1.1" id="Layer_1" xmlns="http://www.w3.org/2000/svg" xmlns:xlink="http://www.w3.org/1999/xlink" x="0px" y="0px"
	 viewBox="0 0 250 250" style="enable-background:new 0 0 250 250;" xml:space="preserve">
<g>
	<path d="M179.2,125c0,7.5-1.3,14.6-4.2,21.2c-2.8,6.6-6.7,12.4-11.6,17.2c-5,5-10.7,8.8-17.4,11.7c-6.6,2.8-13.5,4.2-21,4.2
		c-7.5,0-14.6-1.4-21.2-4.2c-6.6-2.9-12.4-6.7-17.4-11.7c-4.9-4.9-8.8-10.7-11.6-17.2c-2.8-6.6-4.2-13.7-4.2-21.2
		c0-7.5,1.4-14.5,4.2-21.2c2.8-6.6,6.7-12.4,11.6-17.2c5-5,10.8-8.8,17.4-11.7c6.6-2.8,13.7-4.2,21.2-4.2c7.5,0,14.5,1.4,21,4.2
		c6.7,2.9,12.4,6.7,17.4,11.7c4.9,4.9,8.8,10.7,11.6,17.2C177.9,110.5,179.2,117.5,179.2,125z"/>
</g>
</svg>
