<svg xmlns="http://www.w3.org/2000/svg" viewBox="0 0 250 250"><path d="M174.8 91c3.7 7.4 5.7 15.8 5.7 24.6 0 29.6-23.1 53.8-52.3 55.4-1.4 6.3-2.5 12.6-3.2 19.1-.7-6.4-1.7-12.8-3.2-19.1-29.2-1.6-52.3-25.8-52.3-55.4 0-8.9 2-17.2 5.7-24.7-4.5-4.2-9.3-8.2-14.3-11.8 5.7 2.5 11.4 4.7 17.4 6.6C88.1 70.2 105.4 60 125 60c19.7 0 36.9 10.3 46.8 25.6 5.9-1.8 11.7-3.9 17.4-6.6-5 3.7-9.9 7.8-14.4 12zm-54.5 73.6c-.8-2.5-1.4-5.1-2.4-7.6-3.6-10.5-8-20.5-13.5-30-5.7-9.5-12.1-18.1-19.3-26.3L80 95.4c-2.6 6.2-4.2 12.9-4.2 20.1-.1 25.7 19.5 46.8 44.5 49.1zM84.5 87.5c2.4.7 4.7 1.2 7.2 1.7 10.7 2.5 21.7 3.7 33.3 3.7 11.6 0 22.6-1.2 33.3-3.6 2.5-.5 4.9-1.2 7.2-1.8-8.8-12.8-23.7-21.2-40.5-21.2s-31.6 8.4-40.5 21.2zm89.8 28.1c0-7.1-1.6-13.9-4.2-20-1.7 1.7-3.4 3.4-5.1 5.3-7.2 8.2-13.7 16.8-19.3 26.3-5.5 9.3-10 19.3-13.5 29.8-.9 2.5-1.6 5.1-2.4 7.6 24.9-2.3 44.5-23.4 44.5-49z"/></svg>