<?xml version="1.0" encoding="utf-8"?>
<!-- Generator: Adobe Illustrator 21.0.2, SVG Export Plug-In . SVG Version: 6.00 Build 0)  -->
<svg version="1.1" id="Layer_1" xmlns="http://www.w3.org/2000/svg" xmlns:xlink="http://www.w3.org/1999/xlink" x="0px" y="0px"
	 viewBox="0 0 250 250" style="enable-background:new 0 0 250 250;" xml:space="preserve">
<g>
	<path d="M189.2,69.6c-8.8,6.4-16.8,13.7-24.2,21.8c-7.2,8-13.7,16.7-19.3,26.2c-5.5,9.3-10,19.3-13.5,30
		c-3.5,10.6-5.9,21.6-7.1,32.9c-1.2-11.3-3.5-22.2-7.1-32.9c-3.6-10.7-8-20.6-13.5-30.1c-5.7-9.3-12.1-18.1-19.3-26.2
		c-7.4-8.2-15.4-15.4-24.2-21.7c9.9,4.3,20.1,7.8,30.9,10.1c10.7,2.4,21.7,3.6,33.3,3.6c11.6,0,22.6-1.2,33.3-3.6
		C168.9,77.3,179.2,74,189.2,69.6z"/>
</g>
</svg>
