<?xml version="1.0" encoding="utf-8"?>
<!-- Generator: Adobe Illustrator 21.0.2, SVG Export Plug-In . SVG Version: 6.00 Build 0)  -->
<svg version="1.1" id="Layer_1" xmlns="http://www.w3.org/2000/svg" xmlns:xlink="http://www.w3.org/1999/xlink" x="0px" y="0px"
	 viewBox="0 0 250 250" style="enable-background:new 0 0 250 250;" xml:space="preserve">
<g>
	<path d="M187.2,125.1c0,8.4-1.7,16.6-4.9,24.2c-3.2,7.5-7.6,14.1-13.3,19.7c-5.7,5.7-12.2,10.1-19.9,13.3c-7.5,3.3-15.6,5-24.2,5
		c-8.5,0-16.7-1.7-24.2-5c-7.6-3.2-14.2-7.6-19.9-13.3c-5.7-5.7-10.1-12.2-13.3-19.7c-3.2-7.6-4.9-15.8-4.9-24.2
		c0-8.5,1.7-16.7,4.9-24.3C71,93.3,75.4,86.7,81,81.1c5.7-5.7,12.2-10.1,19.9-13.3c7.5-3.3,15.6-4.9,24.2-4.9
		c8.5,0,16.7,1.6,24.2,4.9c7.6,3.2,14.2,7.6,19.9,13.3c5.5,5.7,10,12.2,13.3,19.7C185.5,108.4,187.2,116.6,187.2,125.1z
		 M179.3,125.1c0-7.5-1.4-14.6-4.2-21.2c-2.9-6.6-6.7-12.4-11.7-17.4c-4.9-4.9-10.7-8.7-17.2-11.6c-6.6-2.8-13.7-4.2-21.2-4.2
		c-7.5,0-14.5,1.4-21.2,4.2c-6.6,2.9-12.4,6.7-17.2,11.6c-5,5-8.8,10.8-11.7,17.4c-2.8,6.6-4.2,13.7-4.2,21.2
		c0,7.5,1.4,14.5,4.2,21.2c2.9,6.6,6.7,12.4,11.7,17.2c4.9,5,10.7,8.8,17.2,11.6c6.7,2.9,13.7,4.3,21.2,4.3c7.5,0,14.6-1.4,21.2-4.3
		c6.6-2.8,12.4-6.6,17.2-11.6c5-4.9,8.8-10.7,11.7-17.2C177.9,139.6,179.3,132.6,179.3,125.1z"/>
</g>
</svg>
