<svg xmlns="http://www.w3.org/2000/svg" viewBox="0 0 250 250"><path d="M187.2 125.1c0 8.4-1.7 16.6-4.9 24.2-3.2 7.5-7.6 14.1-13.3 19.7-5.7 5.7-12.2 10.1-19.9 13.3-7.5 3.3-15.6 5-24.2 5-8.5 0-16.7-1.7-24.2-5-7.6-3.2-14.2-7.6-19.9-13.3-5.7-5.7-10.1-12.2-13.3-19.7-3.2-7.6-4.9-15.8-4.9-24.2 0-8.5 1.7-16.7 4.9-24.3C71 93.3 75.4 86.7 81 81.1c5.7-5.7 12.2-10.1 19.9-13.3 7.5-3.3 15.6-4.9 24.2-4.9 8.5 0 16.7 1.6 24.2 4.9 7.6 3.2 14.2 7.6 19.9 13.3 5.5 5.7 10 12.2 13.3 19.7 3 7.6 4.7 15.8 4.7 24.3zm-7.9 0c0-7.5-1.4-14.6-4.2-21.2-2.9-6.6-6.7-12.4-11.7-17.4-4.9-4.9-10.7-8.7-17.2-11.6-6.6-2.8-13.7-4.2-21.2-4.2s-14.5 1.4-21.2 4.2c-6.6 2.9-12.4 6.7-17.2 11.6-5 5-8.8 10.8-11.7 17.4-2.8 6.6-4.2 13.7-4.2 21.2s1.4 14.5 4.2 21.2c2.9 6.6 6.7 12.4 11.7 17.2 4.9 5 10.7 8.8 17.2 11.6 6.7 2.9 13.7 4.3 21.2 4.3s14.6-1.4 21.2-4.3c6.6-2.8 12.4-6.6 17.2-11.6 5-4.9 8.8-10.7 11.7-17.2 2.8-6.7 4.2-13.7 4.2-21.2z"/></svg>