<svg xmlns="http://www.w3.org/2000/svg" viewBox="0 0 250 250"><path d="M50 86l8.36-8.18.6.53Q69.09 88.66 79.26 99a2.2 2.2 0 0 1 .68 1.73v9.79a1.9 1.9 0 0 0 .49 1.2q11.24 11.4 22.54 22.7a1.8 1.8 0 0 0 1.12.47q5.59.05 11.18 0a1.8 1.8 0 0 0 1.13-.47q9.18-8.9 18.31-17.85a1.64 1.64 0 0 0 .44-1.06v-11.4a1.56 1.56 0 0 0-.41-1q-11.31-11.39-22.66-22.71A1.67 1.67 0 0 0 111 80h-10.69a1.65 1.65 0 0 1-1.06-.42l-20.53-21c-.13-.13-.25-.28-.4-.46.17-.2.32-.4.49-.57 2.24-2.33 4.46-4.68 6.73-7a1.85 1.85 0 0 1 1.2-.49h36.5a2 2 0 0 1 1.26.53q19.8 20 39.55 40a1.76 1.76 0 0 1 .56 1.36v35.77a1.76 1.76 0 0 1-.57 1.36L129 164.38a2 2 0 0 1-1.26.54h-36a1.73 1.73 0 0 1-1.34-.6l-39.6-39.93a8.09 8.09 0 0 0-.74-.6Q50 104.93 50 86zm99.05 97.94l-13.48-13.8 34.24-34.9 14.1 13.8zm9.88.79l25.8-25.8L200 174.2 174.2 200z"/></svg>