<?xml version="1.0" encoding="utf-8"?>
<!-- Generator: Adobe Illustrator 21.0.2, SVG Export Plug-In . SVG Version: 6.00 Build 0)  -->
<svg version="1.1" id="Layer_1" xmlns="http://www.w3.org/2000/svg" xmlns:xlink="http://www.w3.org/1999/xlink" x="0px" y="0px"
	 viewBox="0 0 250 250" style="enable-background:new 0 0 250 250;" xml:space="preserve">
<g>
	<path d="M141.4,100.6l35.8-9.7l-21.7,30.4l30,18.1l-33.9,5.4l6.4,40.6l-30.5-30.2l-31.8,32.7l7-42.7l-34.5-5.7l33.7-17.8L64.5,80.9
		l52.3,25l10.7-43.8L141.4,100.6z M143.7,157.9l-3.4-20.9l18.4-2.9L141.8,124l12.1-17l-18.8,5.1l-6.2-17.1l-5.8,23.3L101.3,108
		l14.9,16.3l-19.7,10.5l17.6,2.8l-3.6,21.6l17-17.2L143.7,157.9z"/>
</g>
</svg>
