<?xml version="1.0" encoding="utf-8"?>
<!-- Generator: Adobe Illustrator 21.0.2, SVG Export Plug-In . SVG Version: 6.00 Build 0)  -->
<svg version="1.1" id="Layer_1" xmlns="http://www.w3.org/2000/svg" xmlns:xlink="http://www.w3.org/1999/xlink" x="0px" y="0px"
	 viewBox="0 0 250 250" style="enable-background:new 0 0 250 250;" xml:space="preserve">
<g>
	<path d="M173.7,150.6c-2,5.7-4.9,10.9-8.7,15.5c-3.8,4.6-8.2,8.4-13.3,11.6l5.1,6.8l-7.2-5.4c-3.3,2-6.8,3.6-10.5,4.7
		c-3.7,1.2-7.6,2-11.6,2.5v8.2l-11.6,3.3v-11.4c-7-0.8-13.4-2.8-19.5-5.9c-6-3.2-11.3-7.2-15.8-12.1c-4.5-5-8-10.7-10.7-17
		c-2.5-6.3-3.8-13.1-3.8-20.4c0-7.4,1.3-14.2,4.1-20.6c2.6-6.6,6.3-12.2,11-17.2c4.6-5,10.1-8.9,16.4-12.1c6.2-3,13-4.9,20.2-5.3
		l0.8-23.7h5.8l0.8,23.7c7.2,0.4,14.1,2.2,20.4,5.3c6.3,3.2,11.8,7.1,16.4,12.1c4.7,5,8.4,10.7,11,17.2c2.8,6.4,4.1,13.3,4.1,20.6
		c0,6.3-0.9,12-2.8,17.2l9.1,1.4L173.7,150.6z M117.8,82.1c-6.3,0.5-12.2,2.1-17.8,4.9c-5.4,2.6-10.1,6.3-14.2,10.7
		c-4.2,4.5-7.4,9.5-9.7,15.3c-2.4,5.7-3.6,11.8-3.6,18.1s1.2,12.4,3.4,17.9c2.2,5.7,5.3,10.7,9.2,15.1c3.8,4.3,8.5,7.9,13.8,10.7
		c5.3,2.8,10.9,4.6,17,5.4v-19.2l-0.7-2.9l-19.1,9.7l13-18.7l-30-20.2l36.4,9.7L117.8,82.1z M168.3,147.2c2-5.1,2.9-10.5,2.9-16.2
		c0-6.4-1.2-12.6-3.5-18.3c-2.4-5.8-5.5-10.8-9.6-15.1c-4.1-4.5-8.9-8-14.5-10.7c-5.5-2.8-11.4-4.3-17.9-4.9l2,51.7l25.8-18.9
		l-18.9,26.8L168.3,147.2z M127.6,180.1c2.9-0.4,5.8-0.9,8.5-1.8c2.8-0.8,5.5-2,8-3.3l-16.6-12.8V180.1z M148.1,172.9
		c4.1-2.6,7.8-5.8,10.9-9.5c3.3-3.7,5.9-7.6,7.9-12.1l-32.9,2.6L148.1,172.9z"/>
</g>
</svg>
