<svg xmlns="http://www.w3.org/2000/svg" viewBox="0 0 250 250"><path d="M173.7 150.6c-2 5.7-4.9 10.9-8.7 15.5-3.8 4.6-8.2 8.4-13.3 11.6l5.1 6.8-7.2-5.4c-3.3 2-6.8 3.6-10.5 4.7-3.7 1.2-7.6 2-11.6 2.5v8.2l-11.6 3.3v-11.4c-7-.8-13.4-2.8-19.5-5.9-6-3.2-11.3-7.2-15.8-12.1-4.5-5-8-10.7-10.7-17-2.5-6.3-3.8-13.1-3.8-20.4 0-7.4 1.3-14.2 4.1-20.6 2.6-6.6 6.3-12.2 11-17.2 4.6-5 10.1-8.9 16.4-12.1 6.2-3 13-4.9 20.2-5.3l.8-23.7h5.8l.8 23.7c7.2.4 14.1 2.2 20.4 5.3 6.3 3.2 11.8 7.1 16.4 12.1 4.7 5 8.4 10.7 11 17.2 2.8 6.4 4.1 13.3 4.1 20.6 0 6.3-.9 12-2.8 17.2l9.1 1.4-9.7 1zm-55.9-68.5c-6.3.5-12.2 2.1-17.8 4.9-5.4 2.6-10.1 6.3-14.2 10.7-4.2 4.5-7.4 9.5-9.7 15.3-2.4 5.7-3.6 11.8-3.6 18.1s1.2 12.4 3.4 17.9c2.2 5.7 5.3 10.7 9.2 15.1 3.8 4.3 8.5 7.9 13.8 10.7 5.3 2.8 10.9 4.6 17 5.4V161l-.7-2.9-19.1 9.7 13-18.7-30-20.2 36.4 9.7 2.3-56.5zm50.5 65.1c2-5.1 2.9-10.5 2.9-16.2 0-6.4-1.2-12.6-3.5-18.3-2.4-5.8-5.5-10.8-9.6-15.1-4.1-4.5-8.9-8-14.5-10.7-5.5-2.8-11.4-4.3-17.9-4.9l2 51.7 25.8-18.9-18.9 26.8 33.7 5.6zm-40.7 32.9c2.9-.4 5.8-.9 8.5-1.8 2.8-.8 5.5-2 8-3.3l-16.6-12.8v17.9zm20.5-7.2c4.1-2.6 7.8-5.8 10.9-9.5 3.3-3.7 5.9-7.6 7.9-12.1l-32.9 2.6 14.1 19z"/></svg>