<svg xmlns="http://www.w3.org/2000/svg" viewBox="0 0 250 250"><path d="M59.2 130.29c2-1.67 3.91-3.43 6-5 2.4-1.83 4.89-3.55 7.4-5.22a18.12 18.12 0 0 1 2.81-1.2c2.35-1 4.76-2 7-3.15a18.6 18.6 0 0 0 5.87-4.72 4.06 4.06 0 0 0 1.2-2.89 1.48 1.48 0 0 1 .52-1c1.8-1.57 3.64-3.15 5.55-4.62a6.1 6.1 0 0 1 4.49-1.5 1 1 0 0 0 .6-.26l10.59-9A1.9 1.9 0 0 0 112 90a2 2 0 0 1 1-2c1.2-.92 2.2-2 3.38-3a26.93 26.93 0 0 1 3.42-2.3 6.73 6.73 0 0 1 1.86-.4A6.71 6.71 0 0 0 123 82c.73-.33.74-.85.08-1.32a13.6 13.6 0 0 1-1.31-1 2.1 2.1 0 0 1-.68-1 1.41 1.41 0 0 1 .24-1.14c1.12-1.06 2.36-2 3.49-3.06a5.63 5.63 0 0 1 3.09-1.11c.19 0 .57.31.68.56.31.68.51 1.42.78 2.2 4.38-2.63 7.94-6.12 11.89-9.35l6.57 8.22c-.93.77-1.8 1.46-2.65 2.18-3 2.53-5.95 5.08-8.93 7.6-1.4 1.2-2.82 2.36-4.27 3.49a28.58 28.58 0 0 1-2.48 1.68 1.57 1.57 0 0 0-.8 2c.14.48.31 1 .46 1.43 0 .11.1.21.17.38l.65-.43a126.72 126.72 0 0 0 11.8-9.44c1-.93 2.12-1.8 3.21-2.63a.71.71 0 0 0 .15-1.2c-1.06-1.36-1.07-1.39.23-2.47l14-11.64a3 3 0 0 1 2.86-.67 2 2 0 0 0 2.11-.6q4.42-4.63 8.93-9.17c1.84-1.85 3.7-3.65 5.55-5.45l11.91 14.35c-.16.12-.35.26-.55.39-3.55 2.27-7.11 4.54-10.65 6.82-2.1 1.36-4.2 2.74-6.27 4.13a1.69 1.69 0 0 0-.74 2.09 1.8 1.8 0 0 1-.76 2.12l-5.4 4.49-9.67 8c-.79.66-.79.65-1.34-.25-.25-.41-.53-.82-.8-1.24-1.27 1-2.47 1.91-3.67 2.85l-5.58 4.44a.91.91 0 0 0-.26 1.25v.05c.71 1.38.77 1.41 2 .41.76-.64 1-.64 1.63.13q8.26 9.85 16.48 19.7c.38.45.77.88 1.2 1.36l-1.76 1.36 2.63 3.34-1.37 1.15-20.26 16.7-1.75 1.37c-3.52 2.75-7.31 3-11.29 1.2-1.24-.56-2.4-1.3-3.6-1.84a18.41 18.41 0 0 0-2.9-.91 1.39 1.39 0 0 0-.92.23 11.26 11.26 0 0 0-1.39 1c-2.49 2.05-2.85 3.64-1.86 6.6a20.92 20.92 0 0 0 1.6 3.25c2.24 4.15 4.51 8.29 6.73 12.45 2.6 4.87 5.2 9.75 7.72 14.67a18.6 18.6 0 0 1 2 6.37 8.68 8.68 0 0 1-2.47 7.47 14.52 14.52 0 0 1-7.41 4.34c-1.56.31-3-.25-4.5-.53-4.37-.85-6.55-4.08-7.85-7.8-3.37-9.6-5.78-19.54-8.4-29.4-.44-1.65-.69-3.36-1-5a6.08 6.08 0 0 0-4.8-5.32c-1.2-.29-2.4-.65-3.56-1a4.7 4.7 0 0 1-3.36-3c-1.2.83-2.35 1.63-3.51 2.4a1.84 1.84 0 0 1-2.57-.22c-.94-.9-1.2-1.8-.43-2.71a46.52 46.52 0 0 1 3.6-3.56c.73-.68 1.54-1.27 2.34-1.91-2.68-4.8-6.88-8.24-10-12.72l12.6-10.32a2.3 2.3 0 0 0-1.94-.44 7.8 7.8 0 0 0-3.6 1.66 32 32 0 0 0-7.93 8.35c-1 1.71-1.93 3.5-3 5.21a7.27 7.27 0 0 1-1.59 1.8c-3.41 2.78-6.86 5.51-10.37 8.32l-2.65-3.24-8-9.58a3.35 3.35 0 0 0-.41-.37.57.57 0 0 0 .08-.23zm88.6 5.07c-.21-.25-.34-.42-.47-.6l-7.46-8.4c-1.49-1.68-1.53-1.8-3.6-1-4 1.58-6.71 4.35-7.38 8.77a4.29 4.29 0 0 0 .1 1.8 5.92 5.92 0 0 0 2.09 3.17 14.83 14.83 0 0 0 2.58 1.63c2.19 1 4.51 1.45 6.75.29a29.1 29.1 0 0 0 4.4-2.87c1.05-.81 1.99-1.83 2.99-2.79z"/></svg>